<svg xmlns="http://www.w3.org/2000/svg" xmlns:xlink="http://www.w3.org/1999/xlink" xmlns:lucid="lucid" width="916" height="877"><g transform="translate(-59 -100)" lucid:page-tab-id="~QxNv6wkKDEo"><path d="M234.85 148c0-4.42 3.58-8 8-8h564.52c4.42 0 8 3.58 8 8v26.15c0 4.4-3.58 8-8 8H242.85c-4.42 0-8-3.6-8-8z" stroke="#000" stroke-opacity="0" stroke-width="2" fill="#fff" fill-opacity="0"/><use xlink:href="#a" transform="matrix(1,0,0,1,234.84783804928972,140) translate(24.813703703703766 24.98777777777778)"/><use xlink:href="#b" transform="matrix(1,0,0,1,234.84783804928972,140) translate(99.11000000000006 24.98777777777778)"/><use xlink:href="#c" transform="matrix(1,0,0,1,234.84783804928972,140) translate(135.52975308641982 24.98777777777778)"/><use xlink:href="#d" transform="matrix(1,0,0,1,234.84783804928972,140) translate(274.9445679012346 24.98777777777778)"/><use xlink:href="#e" transform="matrix(1,0,0,1,234.84783804928972,140) translate(317.0458024691358 24.98777777777778)"/><use xlink:href="#f" transform="matrix(1,0,0,1,234.84783804928972,140) translate(401.39395061728396 24.98777777777778)"/><path d="M241.9 180.77H808.3M241.9 180.77h-3M808.32 180.77h3" stroke="#b2b2b2" stroke-width="2" fill="none"/><path d="M654.85 521.8c0 11.05-8.96 20-20 20-11.05 0-20-8.95-20-20 0-11.04 8.95-20 20-20 11.04 0 20 8.96 20 20z" stroke="#666"/><path d="M570.85 340c-8.84 0-16 7.16-16 16v48c0 8.84 7.16 16 16 16h128c8.83 0 16-7.16 16-16v-48c0-8.84-7.17-16-16-16z" stroke="#666" fill="#fff"/><use xlink:href="#g" transform="matrix(1,0,0,1,562.8478380492897,348) translate(16.345679012345684 35.111111111111114)"/><use xlink:href="#h" transform="matrix(1,0,0,1,562.8478380492897,348) translate(41.40740740740741 35.111111111111114)"/><path d="M635.35 501.3h-1v-31.07h1zm0-49.73h-1v-14.7h1zM635.35 501.86l-.5-.06-.5.02v-.52h1zM639.48 436.38h-9.27l4.65-14.26z" fill="#666"/><path d="M640.17 436.88h-10.65l5.33-16.38zm-9.27-1h7.9l-3.95-12.14z" fill="#666"/><use xlink:href="#i" transform="matrix(1,0,0,1,600.323146691265,451.56691831289794) translate(0 12.444444444444446)"/><use xlink:href="#j" transform="matrix(1,0,0,1,600.323146691265,451.56691831289794) translate(48.308641975308646 12.444444444444446)"/><path d="M290.85 620c-8.84 0-16 7.16-16 16v48c0 8.84 7.16 16 16 16h128c8.83 0 16-7.16 16-16v-48c0-8.84-7.17-16-16-16z" stroke="#666" fill="#fff"/><use xlink:href="#g" transform="matrix(1,0,0,1,282.84783804928975,628) translate(26.586419753086417 35.111111111111114)"/><use xlink:href="#k" transform="matrix(1,0,0,1,282.84783804928975,628) translate(51.648148148148145 35.111111111111114)"/><path d="M790.85 620c-8.84 0-16 7.16-16 16v48c0 8.84 7.16 16 16 16h128c8.83 0 16-7.16 16-16v-48c0-8.84-7.17-16-16-16z" stroke="#666" fill="#fff"/><use xlink:href="#l" transform="matrix(1,0,0,1,782.8478380492897,628) translate(40.910493827160494 35.111111111111114)"/><path d="M369.48 518.44l-3.2 11.4-2.96 12.7-2.67 14-2.25 15.2-1.7 16.13-.96 15.28-1-.06.97-15.3 1.7-16.18 2.27-15.26 2.67-14.04 3-12.72 3.18-11.45 3.02-9.3h1.05zM554.36 380.5l-3.68.08-4.18.26-4.8.5-5.54.83-6.4 1.22-7.38 1.73-8.5 2.38-9.68 3.16-10.82 4.03-11.74 4.93-6.08 2.86v-1.12l5.67-2.66 11.78-4.96 10.87-4.04 9.72-3.17 8.53-2.4 7.43-1.73 6.43-1.23 5.57-.84 4.84-.5 4.24-.28 3.7-.08z" fill="#666"/><path d="M554.85 380.46l-.46.04-.1-1 .55-.04zM359.86 603.73l-4.97 14.15-4.3-14.37z" fill="#666"/><path d="M360.56 603.25l-5.7 16.25-4.94-16.5zm-5.63 13l4.23-12.03-7.9-.2z" fill="#666"/><use xlink:href="#m" transform="matrix(1,0,0,1,326.2030302971312,399.97479622763717) translate(0 12.441406250000002)"/><use xlink:href="#n" transform="matrix(1,0,0,1,326.2030302971312,399.97479622763717) translate(46.674262152777786 12.441406250000002)"/><use xlink:href="#o" transform="matrix(1,0,0,1,326.2030302971312,399.97479622763717) translate(0 27.996961805555557)"/><use xlink:href="#p" transform="matrix(1,0,0,1,326.2030302971312,399.97479622763717) translate(37.33940972222223 27.996961805555557)"/><use xlink:href="#q" transform="matrix(1,0,0,1,326.2030302971312,399.97479622763717) translate(0 43.552517361111114)"/><use xlink:href="#r" transform="matrix(1,0,0,1,326.2030302971312,399.97479622763717) translate(84.01367187500001 43.552517361111114)"/><use xlink:href="#s" transform="matrix(1,0,0,1,326.2030302971312,399.97479622763717) translate(112.01822916666669 43.552517361111114)"/><use xlink:href="#t" transform="matrix(1,0,0,1,326.2030302971312,399.97479622763717) translate(0 59.10807291666667)"/><use xlink:href="#u" transform="matrix(1,0,0,1,326.2030302971312,399.97479622763717) translate(0 74.66362847222223)"/><use xlink:href="#v" transform="matrix(1,0,0,1,326.2030302971312,399.97479622763717) translate(46.674262152777786 74.66362847222223)"/><use xlink:href="#o" transform="matrix(1,0,0,1,326.2030302971312,399.97479622763717) translate(0 90.21918402777779)"/><use xlink:href="#w" transform="matrix(1,0,0,1,326.2030302971312,399.97479622763717) translate(37.33940972222223 90.21918402777779)"/><use xlink:href="#q" transform="matrix(1,0,0,1,326.2030302971312,399.97479622763717) translate(0 105.77473958333334)"/><use xlink:href="#x" transform="matrix(1,0,0,1,326.2030302971312,399.97479622763717) translate(84.01367187500001 105.77473958333334)"/><path d="M253.38 339.46l-3.93 5.4-3.94 5.93-3.93 6.5-3.93 7.16-3.9 7.88-3.87 8.67-3.77 9.54-3.64 10.47-3.46 11.46-3.2 12.46-2.85 13.47-2.44 14.38-1.9 15.18-1.32 15.72-.67 15.97v15.85l.64 15.35 1.22 14.52 1.7 13.45 2.05 12.2 2.33 10.94 2.48 9.67 2.57 8.48 2.58 7.43 2.55 6.46 2.5 5.63 2.44 4.9 2.36 4.3 2.27 3.75 2.2 3.3 2.1 2.9 2.02 2.56 1.94 2.26 1.9 2.02 1.82 1.78 1.77 1.6 1.7 1.42 1.7 1.27 1.62 1.12 1.6 1.02 1.56.9 1.56.8 1.52.73 1.5.63 1.5.56 1.5.48 1.47.42 1.5.34 1.48.3 1.5.2 1.52.17 1.53.1 1.58.03-.03 1-1.6-.03-1.57-.1-1.56-.17-1.54-.22-1.53-.3-1.53-.36-1.52-.42-1.53-.5-1.53-.57-1.55-.65-1.56-.73-1.57-.83-1.6-.93-1.64-1.04-1.67-1.16-1.7-1.3-1.76-1.45-1.8-1.62-1.85-1.82-1.92-2.03-1.98-2.3-2.06-2.6-2.13-2.92-2.2-3.33-2.3-3.8-2.38-4.32-2.45-4.95-2.52-5.67-2.57-6.5-2.58-7.46-2.57-8.53-2.5-9.72-2.32-10.96-2.07-12.26-1.7-13.48-1.2-14.57-.66-15.38v-15.9l.68-16 1.32-15.77 1.92-15.2 2.44-14.45 2.87-13.5 3.2-12.5 3.48-11.5 3.66-10.5 3.8-9.58 3.87-8.7 3.92-7.92 3.96-7.2 3.97-6.55 3.96-5.96 3.95-5.45 1.87-2.35h1.27zm215.18-74.72l18.36.8L504.4 267l16.16 2.05 14.64 2.5 13 2.76 11.42 2.94 9.92 3 8.6 3 7.4 2.93 6.4 2.85 5.52 2.75 4.8 2.63 4.15 2.53 3.65 2.4 3.17 2.32 2.8 2.22 2.45 2.12 2.17 2.03 1.92 1.97 1.7 1.9 1.53 1.83 1.34 1.8 1.2 1.73 1.08 1.7.96 1.65.85 1.64.55 1.18-.9.42-.55-1.15-.83-1.6-.93-1.63-1.05-1.66-1.2-1.7-1.3-1.75-1.5-1.8-1.7-1.87-1.88-1.93-2.14-2.02-2.43-2.1-2.75-2.18-3.15-2.3-3.6-2.38-4.12-2.5-4.75-2.62-5.5-2.72-6.35-2.84-7.37-2.93-8.55-2.98-9.88-3-11.37-2.92-12.97-2.76-14.6-2.48L504.3 268l-17.42-1.48-18.32-.78H449.8l-18.6.75-18.04 1.5-17.06 2.13-15.88 2.67-14.57 3.08-13.24 3.38-11.94 3.6-10.76 3.73-8.22 3.23h-2.62l.8-.35 9.7-3.83 10.8-3.75 12-3.6 13.27-3.4 14.6-3.1 15.92-2.66 17.1-2.14 18.08-1.5 18.65-.77z" fill="#666"/><path d="M274.85 659.6v1l-.6-.1.2-1zM634.5 337.92L626.9 325l9.04-2z" fill="#666"/><path d="M634.85 339.5l-8.74-14.84 10.4-2.3zm-7.18-14.17l6.48 11 1.22-12.7z" fill="#666"/><use xlink:href="#m" transform="matrix(1,0,0,1,213.39962927706796,289.8311732566461) translate(0 12.441406250000002)"/><use xlink:href="#y" transform="matrix(1,0,0,1,213.39962927706796,289.8311732566461) translate(46.674262152777786 12.441406250000002)"/><use xlink:href="#o" transform="matrix(1,0,0,1,213.39962927706796,289.8311732566461) translate(0 27.996961805555557)"/><use xlink:href="#p" transform="matrix(1,0,0,1,213.39962927706796,289.8311732566461) translate(37.33940972222223 27.996961805555557)"/><use xlink:href="#q" transform="matrix(1,0,0,1,213.39962927706796,289.8311732566461) translate(0 43.552517361111114)"/><use xlink:href="#z" transform="matrix(1,0,0,1,213.39962927706796,289.8311732566461) translate(84.01367187500001 43.552517361111114)"/><path d="M548.63 660.5H435.35v-1h113.28zm209.33 0h-96.9v-1h96.9zM435.35 660.5h-.5v-1h.5zM772.73 660l-14.27 4.64v-9.28z" fill="#666"/><path d="M774.35 660l-16.4 5.32v-10.64zm-15.4 3.95l12.16-3.95-12.14-3.95z" fill="#666"/><g><use xlink:href="#A" transform="matrix(1,0,0,1,548.6343311411489,650.6666666666666) translate(0 12.444444444444446)"/><use xlink:href="#B" transform="matrix(1,0,0,1,548.6343311411489,650.6666666666666) translate(59.80246913580247 12.444444444444446)"/></g><path d="M355.35 700.53l-.27 4.07-.43 3.98-.58 3.9-.74 3.85-.9 3.77-1.05 3.72-1.2 3.68-1.36 3.63-1.52 3.58-1.68 3.56-1.84 3.5-2.02 3.5-2.2 3.43-2.37 3.4-2.57 3.34-2.75 3.3-2.94 3.26-3.14 3.2-3.33 3.1-3.52 3.03-2.83 2.23v-1.27l2.2-1.74 3.48-3 3.3-3.08 3.1-3.16 2.93-3.22 2.72-3.28 2.53-3.32 2.35-3.37 2.18-3.4 2-3.44 1.83-3.5 1.66-3.5 1.5-3.54 1.34-3.6 1.2-3.63 1.02-3.68.9-3.73.72-3.8.58-3.87.43-3.94.25-4.03zm-97.33-39.14l-1.06.06-9.46 1.02-8 1.2-6.8 1.33-5.86 1.4-5.06 1.43-4.42 1.45-3.86 1.45-3.42 1.45-3.02 1.44-2.7 1.42-2.42 1.4-2.18 1.4-1.96 1.37-1.8 1.38-1.6 1.35-1.5 1.34-1.34 1.33-1.24 1.33-1.14 1.33-1.04 1.33-.96 1.32-.9 1.34-.8 1.35-.74 1.37-.68 1.4-.62 1.4-.56 1.43-.5 1.46-.46 1.5-.4 1.55-.32 1.6-.27 1.66-.2 1.72-.16 1.8-.07 1.86v1.97l.1 2.08.2 2.2.3 2.33.43 2.5.58 2.67.34 1.27h-1.03l-.26-1.04-.6-2.7-.43-2.54-.3-2.38-.2-2.23-.1-2.12v-2l.07-1.92.15-1.82.22-1.76.28-1.7.34-1.63.4-1.6.46-1.54.52-1.5.57-1.48.65-1.44.7-1.43.76-1.4.85-1.38.9-1.37 1-1.37 1.06-1.36 1.17-1.36 1.27-1.36 1.4-1.36 1.5-1.37 1.65-1.37 1.8-1.4 2-1.4 2.22-1.4 2.45-1.43 2.74-1.45 3.07-1.45 3.45-1.47 3.9-1.46 4.46-1.46 5.1-1.45 5.9-1.4 6.85-1.33 8.04-1.2 9.5-1.04 1.1-.07z" fill="#666"/><path d="M355.34 700.56l-1-.12.07-.44h1zM272.73 660.1l-14 5.4-.5-9.26z" fill="#666"/><path d="M274.35 660l-16.07 6.2-.58-10.62zm-15.15 4.78l11.92-4.6-12.35-3.28z" fill="#666"/><g><use xlink:href="#m" transform="matrix(1,0,0,1,110.74873814647725,726.3400509104661) translate(0 12.441406250000002)"/><use xlink:href="#n" transform="matrix(1,0,0,1,110.74873814647725,726.3400509104661) translate(46.674262152777786 12.441406250000002)"/><use xlink:href="#o" transform="matrix(1,0,0,1,110.74873814647725,726.3400509104661) translate(0 27.996961805555557)"/><use xlink:href="#p" transform="matrix(1,0,0,1,110.74873814647725,726.3400509104661) translate(37.33940972222223 27.996961805555557)"/><use xlink:href="#C" transform="matrix(1,0,0,1,110.74873814647725,726.3400509104661) translate(0 43.552517361111114)"/><use xlink:href="#D" transform="matrix(1,0,0,1,110.74873814647725,726.3400509104661) translate(56.00911458333334 43.552517361111114)"/><use xlink:href="#r" transform="matrix(1,0,0,1,110.74873814647725,726.3400509104661) translate(140.02278645833337 43.552517361111114)"/><use xlink:href="#s" transform="matrix(1,0,0,1,110.74873814647725,726.3400509104661) translate(168.02734375000006 43.552517361111114)"/><use xlink:href="#t" transform="matrix(1,0,0,1,110.74873814647725,726.3400509104661) translate(0 59.10807291666667)"/><use xlink:href="#u" transform="matrix(1,0,0,1,110.74873814647725,726.3400509104661) translate(0 74.66362847222223)"/><use xlink:href="#v" transform="matrix(1,0,0,1,110.74873814647725,726.3400509104661) translate(46.674262152777786 74.66362847222223)"/><use xlink:href="#o" transform="matrix(1,0,0,1,110.74873814647725,726.3400509104661) translate(0 90.21918402777779)"/><use xlink:href="#w" transform="matrix(1,0,0,1,110.74873814647725,726.3400509104661) translate(37.33940972222223 90.21918402777779)"/><use xlink:href="#C" transform="matrix(1,0,0,1,110.74873814647725,726.3400509104661) translate(0 105.77473958333334)"/><use xlink:href="#D" transform="matrix(1,0,0,1,110.74873814647725,726.3400509104661) translate(56.00911458333334 105.77473958333334)"/><use xlink:href="#x" transform="matrix(1,0,0,1,110.74873814647725,726.3400509104661) translate(140.02278645833337 105.77473958333334)"/></g><path d="M848.5 531.45l2.7 18.2 2.16 20.66 1.45 23.33.55 25.86h-1l-.54-25.83-1.44-23.28-2.16-20.64-2.67-18.14-2.5-13.1h1.02zM734.55 380.87l4.9.83 4.72 1 4.53 1.16 4.37 1.32 4.24 1.48 4.13 1.63 4.02 1.78 3.93 1.95 3.86 2.12 3.8 2.3 3.73 2.48 3.7 2.7 3.65 2.9 3.63 3.12 3.62 3.4 3.6 3.68 3.6 4 3.6 4.35 3.6 4.76 3.63 5.2 3.62 5.72 3.64 6.3 3.65 7 3.66 7.75 3.63 8.67 1.25 3.37h-1.07l-1.12-3-3.62-8.62-3.63-7.72-3.6-6.95-3.63-6.27-3.6-5.68-3.6-5.17-3.58-4.72-3.6-4.32-3.56-3.97-3.57-3.64-3.6-3.36-3.6-3.1-3.6-2.9-3.67-2.65-3.7-2.46-3.76-2.28-3.82-2.1-3.9-1.93-3.97-1.8-4.1-1.6-4.2-1.47-4.33-1.3-4.5-1.16-4.66-1-4.87-.8-2.77-.36.12-.98z" fill="#666"/><path d="M855.36 620h-1v-.5h1zM730.9 385.6l-13.94-5.5 14.53-3.74z" fill="#666"/><path d="M731.37 386.33L715.35 380l16.68-4.3zm-12.8-6.13l11.9 4.7.48-7.9z" fill="#666"/><g><use xlink:href="#E" transform="matrix(1,0,0,1,774.5761037055001,471.83924321309337) translate(0 12.441406250000002)"/><use xlink:href="#y" transform="matrix(1,0,0,1,774.5761037055001,471.83924321309337) translate(37.33940972222223 12.441406250000002)"/><use xlink:href="#o" transform="matrix(1,0,0,1,774.5761037055001,471.83924321309337) translate(0 27.996961805555557)"/><use xlink:href="#p" transform="matrix(1,0,0,1,774.5761037055001,471.83924321309337) translate(37.33940972222223 27.996961805555557)"/><use xlink:href="#q" transform="matrix(1,0,0,1,774.5761037055001,471.83924321309337) translate(0 43.552517361111114)"/><use xlink:href="#z" transform="matrix(1,0,0,1,774.5761037055001,471.83924321309337) translate(84.01367187500001 43.552517361111114)"/></g><path d="M855.35 700.52l-.1 4.97-.3 4.83-.5 4.7-.68 4.6-.86 4.5-1.03 4.4-1.2 4.35-1.4 4.3-1.58 4.24-1.78 4.2-1.97 4.2-2.18 4.16-2.4 4.16-2.65 4.17-2.9 4.2-3.2 4.2-3.5 4.22-3.83 4.26-4.23 4.3-4.62 4.34-5.1 4.4-5.6 4.42-6.15 4.48-6.8 4.52-7.53 4.55-8.3 4.55-9.2 4.56-10.15 4.53-11.2 4.43-12.35 4.3-13.55 4.08-14.8 3.8-16 3.4-9.1 1.53v-1l8.9-1.52 15.98-3.4 14.75-3.77 13.5-4.08 12.3-4.28 11.18-4.4 10.12-4.5 9.15-4.55 8.27-4.55 7.48-4.52 6.77-4.5 6.14-4.46 5.57-4.4 5.05-4.37 4.6-4.3 4.18-4.28 3.8-4.24 3.48-4.2 3.16-4.16 2.88-4.14 2.63-4.14 2.4-4.12 2.15-4.14 1.95-4.14 1.76-4.17 1.56-4.2 1.38-4.25 1.2-4.3 1.03-4.38.85-4.46.67-4.55.5-4.66.3-4.8.1-4.94zM355.1 719.45l.85 4.46 1.02 4.38 1.2 4.3 1.38 4.25 1.57 4.2 1.75 4.18 1.95 4.15 2.16 4.14 2.38 4.12 2.63 4.13 2.87 4.14 3.16 4.16 3.47 4.2 3.8 4.22 4.2 4.27 4.6 4.3 5.04 4.37 5.56 4.4 6.14 4.47 6.77 4.48 7.5 4.53 8.26 4.56 9.15 4.54 10.12 4.5 11.17 4.4 12.3 4.3 13.5 4.07 14.74 3.78 15.98 3.4 8.94 1.5v1.02l-9.13-1.54-16.02-3.4-14.77-3.8-13.55-4.08-12.34-4.3-11.2-4.43-10.16-4.52-9.18-4.56-8.3-4.56-7.53-4.55-6.8-4.52-6.17-4.47-5.6-4.43-5.08-4.4-4.63-4.33-4.22-4.3-3.83-4.26-3.5-4.22-3.2-4.2-2.9-4.18-2.64-4.17-2.4-4.16-2.18-4.17-1.96-4.2-1.77-4.2-1.6-4.24-1.38-4.3-1.22-4.33-1.03-4.42-.86-4.48-.4-2.72 1-.15z" fill="#666"/><path d="M855.35 700.54l-1-.07.03-.47h1zM358.8 716l-9.25.68 3.6-14.57z" fill="#666"/><path d="M359.5 716.46l-10.6.76 4.13-16.72zm-9.3-.33l7.87-.57-4.8-11.83z" fill="#666"/><g><use xlink:href="#m" transform="matrix(1,0,0,1,529.2574084163261,788.7198688087828) translate(0 12.441406250000002)"/><use xlink:href="#n" transform="matrix(1,0,0,1,529.2574084163261,788.7198688087828) translate(46.674262152777786 12.441406250000002)"/><use xlink:href="#o" transform="matrix(1,0,0,1,529.2574084163261,788.7198688087828) translate(0 27.996961805555557)"/><use xlink:href="#p" transform="matrix(1,0,0,1,529.2574084163261,788.7198688087828) translate(37.33940972222223 27.996961805555557)"/><use xlink:href="#q" transform="matrix(1,0,0,1,529.2574084163261,788.7198688087828) translate(0 43.552517361111114)"/><use xlink:href="#r" transform="matrix(1,0,0,1,529.2574084163261,788.7198688087828) translate(84.01367187500001 43.552517361111114)"/><use xlink:href="#s" transform="matrix(1,0,0,1,529.2574084163261,788.7198688087828) translate(112.01822916666669 43.552517361111114)"/><use xlink:href="#t" transform="matrix(1,0,0,1,529.2574084163261,788.7198688087828) translate(0 59.10807291666667)"/><use xlink:href="#u" transform="matrix(1,0,0,1,529.2574084163261,788.7198688087828) translate(0 74.66362847222223)"/><use xlink:href="#v" transform="matrix(1,0,0,1,529.2574084163261,788.7198688087828) translate(46.674262152777786 74.66362847222223)"/><use xlink:href="#o" transform="matrix(1,0,0,1,529.2574084163261,788.7198688087828) translate(0 90.21918402777779)"/><use xlink:href="#p" transform="matrix(1,0,0,1,529.2574084163261,788.7198688087828) translate(37.33940972222223 90.21918402777779)"/><use xlink:href="#o" transform="matrix(1,0,0,1,529.2574084163261,788.7198688087828) translate(0 105.77473958333334)"/><use xlink:href="#w" transform="matrix(1,0,0,1,529.2574084163261,788.7198688087828) translate(37.33940972222223 105.77473958333334)"/><use xlink:href="#q" transform="matrix(1,0,0,1,529.2574084163261,788.7198688087828) translate(0 121.3302951388889)"/><use xlink:href="#x" transform="matrix(1,0,0,1,529.2574084163261,788.7198688087828) translate(84.01367187500001 121.3302951388889)"/></g><defs><path fill="#b2b2b2" d="M147 0H94L2-248h55l64 206c17-72 42-137 63-206h54" id="F"/><path fill="#b2b2b2" d="M133-34C117-15 103 5 69 4 32 3 11-16 11-54c-1-60 55-63 116-61 1-26-3-47-28-47-18 1-26 9-28 27l-52-2c7-38 36-58 82-57s74 22 75 68l1 82c-1 14 12 18 25 15v27c-30 8-71 5-69-32zm-48 3c29 0 43-24 42-57-32 0-66-3-65 30 0 17 8 27 23 27" id="G"/><path fill="#b2b2b2" d="M25 0v-261h50V0H25" id="H"/><path fill="#b2b2b2" d="M128 0H69L1-190h53L99-40l48-150h52" id="I"/><path fill="#b2b2b2" d="M185-48c-13 30-37 53-82 52C43 2 14-33 14-96s30-98 90-98c62 0 83 45 84 108H66c0 31 8 55 39 56 18 0 30-7 34-22zm-45-69c5-46-57-63-70-21-2 6-4 13-4 21h74" id="J"/><g id="a"><use transform="matrix(0.0728395061728395,0,0,0.0728395061728395,0,0)" xlink:href="#F"/><use transform="matrix(0.0728395061728395,0,0,0.0728395061728395,16.02469135802469,0)" xlink:href="#G"/><use transform="matrix(0.0728395061728395,0,0,0.0728395061728395,30.592592592592588,0)" xlink:href="#H"/><use transform="matrix(0.0728395061728395,0,0,0.0728395061728395,37.87654320987654,0)" xlink:href="#I"/><use transform="matrix(0.0728395061728395,0,0,0.0728395061728395,52.444444444444436,0)" xlink:href="#J"/></g><path fill="#b2b2b2" d="M23 0v-37h61v-169l-59 37v-38l62-41h46v211h57V0H23" id="K"/><g id="b"><use transform="matrix(0.0728395061728395,0,0,0.0728395061728395,0,0)" xlink:href="#I"/><use transform="matrix(0.0728395061728395,0,0,0.0728395061728395,14.5679012345679,0)" xlink:href="#K"/></g><path fill="#b2b2b2" d="M25-224v-37h50v37H25zM25 0v-190h50V0H25" id="L"/><path fill="#b2b2b2" d="M195-6C206 82 75 100 31 46c-4-6-6-13-8-21l49-6c3 16 16 24 34 25 40 0 42-37 40-79-11 22-30 35-61 35-53 0-70-43-70-97 0-56 18-96 73-97 30 0 46 14 59 34l2-30h47zm-90-29c32 0 41-27 41-63 0-35-9-62-40-62-32 0-39 29-40 63 0 36 9 62 39 62" id="M"/><path fill="#b2b2b2" d="M114-157C55-157 80-60 75 0H25v-261h50l-1 109c12-26 28-41 61-42 86-1 58 113 63 194h-50c-7-57 23-157-34-157" id="N"/><path fill="#b2b2b2" d="M115-3C79 11 28 4 28-45v-112H4v-33h27l15-45h31v45h36v33H77v99c-1 23 16 31 38 25v30" id="O"/><path fill="#b2b2b2" d="M110-194c64 0 96 36 96 99 0 64-35 99-97 99-61 0-95-36-95-99 0-62 34-99 96-99zm-1 164c35 0 45-28 45-65 0-40-10-65-43-65-34 0-45 26-45 65 0 36 10 65 43 65" id="P"/><path fill="#b2b2b2" d="M85 4C-2 5 27-109 22-190h50c7 57-23 150 33 157 60-5 35-97 40-157h50l1 190h-47c-2-12 1-28-3-38-12 25-28 42-61 42" id="Q"/><path fill="#b2b2b2" d="M137-138c1-29-70-34-71-4 15 46 118 7 119 86 1 83-164 76-172 9l43-7c4 19 20 25 44 25 33 8 57-30 24-41C81-84 22-81 20-136c-2-80 154-74 161-7" id="R"/><g id="c"><use transform="matrix(0.0728395061728395,0,0,0.0728395061728395,0,0)" xlink:href="#H"/><use transform="matrix(0.0728395061728395,0,0,0.0728395061728395,7.28395061728395,0)" xlink:href="#L"/><use transform="matrix(0.0728395061728395,0,0,0.0728395061728395,14.5679012345679,0)" xlink:href="#M"/><use transform="matrix(0.0728395061728395,0,0,0.0728395061728395,30.51975308641975,0)" xlink:href="#N"/><use transform="matrix(0.0728395061728395,0,0,0.0728395061728395,46.471604938271604,0)" xlink:href="#O"/><use transform="matrix(0.0728395061728395,0,0,0.0728395061728395,55.1395061728395,0)" xlink:href="#N"/><use transform="matrix(0.0728395061728395,0,0,0.0728395061728395,71.09135802469136,0)" xlink:href="#P"/><use transform="matrix(0.0728395061728395,0,0,0.0728395061728395,87.0432098765432,0)" xlink:href="#Q"/><use transform="matrix(0.0728395061728395,0,0,0.0728395061728395,102.99506172839507,0)" xlink:href="#R"/><use transform="matrix(0.0728395061728395,0,0,0.0728395061728395,117.56296296296297,0)" xlink:href="#J"/></g><path fill="#b2b2b2" d="M182-130c37 4 62 22 62 59C244 23 116-4 24 0v-248c84 5 203-23 205 63 0 31-19 50-47 55zM76-148c40-3 101 13 101-30 0-44-60-28-101-31v61zm0 110c48-3 116 14 116-37 0-48-69-32-116-35v72" id="S"/><path fill="#b2b2b2" d="M136-208V0H84v-208H4v-40h212v40h-80" id="T"/><g id="d"><use transform="matrix(0.0728395061728395,0,0,0.0728395061728395,0,0)" xlink:href="#S"/><use transform="matrix(0.0728395061728395,0,0,0.0728395061728395,18.86543209876543,0)" xlink:href="#T"/></g><path fill="#b2b2b2" d="M135-194c53 0 70 44 70 98 0 56-19 98-73 100-31 1-45-17-59-34 3 33 2 69 2 105H25l-1-265h48c2 10 0 23 3 31 11-24 29-35 60-35zM114-30c33 0 39-31 40-66 0-38-9-64-40-64-56 0-55 130 0 130" id="U"/><path fill="#b2b2b2" d="M231 0h-52l-39-155L100 0H48L-1-190h46L77-45c9-52 24-97 36-145h53l37 145 32-145h46" id="V"/><path fill="#b2b2b2" d="M135-150c-39-12-60 13-60 57V0H25l-1-190h47c2 13-1 29 3 40 6-28 27-53 61-41v41" id="W"/><g id="e"><use transform="matrix(0.0728395061728395,0,0,0.0728395061728395,0,0)" xlink:href="#U"/><use transform="matrix(0.0728395061728395,0,0,0.0728395061728395,15.95185185185185,0)" xlink:href="#P"/><use transform="matrix(0.0728395061728395,0,0,0.0728395061728395,31.9037037037037,0)" xlink:href="#V"/><use transform="matrix(0.0728395061728395,0,0,0.0728395061728395,52.29876543209876,0)" xlink:href="#J"/><use transform="matrix(0.0728395061728395,0,0,0.0728395061728395,66.86666666666666,0)" xlink:href="#W"/></g><path fill="#b2b2b2" d="M220-157c-53 9-28 100-34 157h-49v-107c1-27-5-49-29-50C55-147 81-57 75 0H25l-1-190h47c2 12-1 28 3 38 10-53 101-56 108 0 13-22 24-43 59-42 82 1 51 116 57 194h-49v-107c-1-25-5-48-29-50" id="X"/><path fill="#b2b2b2" d="M135-194c87-1 58 113 63 194h-50c-7-57 23-157-34-157-59 0-34 97-39 157H25l-1-190h47c2 12-1 28 3 38 12-26 28-41 61-42" id="Y"/><g id="f"><use transform="matrix(0.0728395061728395,0,0,0.0728395061728395,0,0)" xlink:href="#X"/><use transform="matrix(0.0728395061728395,0,0,0.0728395061728395,23.308641975308642,0)" xlink:href="#G"/><use transform="matrix(0.0728395061728395,0,0,0.0728395061728395,37.876543209876544,0)" xlink:href="#Y"/><use transform="matrix(0.0728395061728395,0,0,0.0728395061728395,53.82839506172839,0)" xlink:href="#G"/><use transform="matrix(0.0728395061728395,0,0,0.0728395061728395,68.3962962962963,0)" xlink:href="#M"/><use transform="matrix(0.0728395061728395,0,0,0.0728395061728395,84.34814814814817,0)" xlink:href="#J"/><use transform="matrix(0.0728395061728395,0,0,0.0728395061728395,98.91604938271605,0)" xlink:href="#X"/><use transform="matrix(0.0728395061728395,0,0,0.0728395061728395,122.2246913580247,0)" xlink:href="#J"/><use transform="matrix(0.0728395061728395,0,0,0.0728395061728395,136.7925925925926,0)" xlink:href="#Y"/><use transform="matrix(0.0728395061728395,0,0,0.0728395061728395,152.74444444444444,0)" xlink:href="#O"/></g><path fill="#666" d="M140-251c81 0 123 46 123 126C263-46 219 4 140 4 59 4 17-45 17-125s42-126 123-126zm0 227c63 0 89-41 89-101s-29-99-89-99c-61 0-89 39-89 99S79-25 140-24" id="Z"/><path fill="#666" d="M117-194c89-4 53 116 60 194h-32v-121c0-31-8-49-39-48C34-167 62-67 57 0H25l-1-190h30c1 10-1 24 2 32 11-22 29-35 61-36" id="aa"/><g id="g"><use transform="matrix(0.04320987654320988,0,0,0.04320987654320988,0,0)" xlink:href="#Z"/><use transform="matrix(0.04320987654320988,0,0,0.04320987654320988,12.098765432098766,0)" xlink:href="#aa"/></g><path fill="#666" d="M87 75C49 33 22-17 22-94c0-76 28-126 65-167h31c-38 41-64 92-64 168S80 34 118 75H87" id="ab"/><path fill="#666" d="M30-248c87 1 191-15 191 75 0 78-77 80-158 76V0H30v-248zm33 125c57 0 124 11 124-50 0-59-68-47-124-48v98" id="ac"/><path fill="#666" d="M100-194c63 0 86 42 84 106H49c0 40 14 67 53 68 26 1 43-12 49-29l28 8c-11 28-37 45-77 45C44 4 14-33 15-96c1-61 26-98 85-98zm52 81c6-60-76-77-97-28-3 7-6 17-6 28h103" id="ad"/><path fill="#666" d="M114-163C36-179 61-72 57 0H25l-1-190h30c1 12-1 29 2 39 6-27 23-49 58-41v29" id="ae"/><path fill="#666" d="M210-169c-67 3-38 105-44 169h-31v-121c0-29-5-50-35-48C34-165 62-65 56 0H25l-1-190h30c1 10-1 24 2 32 10-44 99-50 107 0 11-21 27-35 58-36 85-2 47 119 55 194h-31v-121c0-29-5-49-35-48" id="af"/><path fill="#666" d="M141-36C126-15 110 5 73 4 37 3 15-17 15-53c-1-64 63-63 125-63 3-35-9-54-41-54-24 1-41 7-42 31l-33-3c5-37 33-52 76-52 45 0 72 20 72 64v82c-1 20 7 32 28 27v20c-31 9-61-2-59-35zM48-53c0 20 12 33 32 33 41-3 63-29 60-74-43 2-92-5-92 41" id="ag"/><path fill="#666" d="M59-47c-2 24 18 29 38 22v24C64 9 27 4 27-40v-127H5v-23h24l9-43h21v43h35v23H59v120" id="ah"/><path fill="#666" d="M33-261c38 41 65 92 65 168S71 34 33 75H2C39 34 66-17 66-93S39-220 2-261h31" id="ai"/><g id="h"><use transform="matrix(0.04320987654320988,0,0,0.04320987654320988,0,0)" xlink:href="#ab"/><use transform="matrix(0.04320987654320988,0,0,0.04320987654320988,5.1419753086419755,0)" xlink:href="#ac"/><use transform="matrix(0.04320987654320988,0,0,0.04320987654320988,15.512345679012347,0)" xlink:href="#ad"/><use transform="matrix(0.04320987654320988,0,0,0.04320987654320988,24.154320987654323,0)" xlink:href="#ae"/><use transform="matrix(0.04320987654320988,0,0,0.04320987654320988,29.296296296296298,0)" xlink:href="#af"/><use transform="matrix(0.04320987654320988,0,0,0.04320987654320988,42.21604938271605,0)" xlink:href="#ag"/><use transform="matrix(0.04320987654320988,0,0,0.04320987654320988,50.85802469135803,0)" xlink:href="#aa"/><use transform="matrix(0.04320987654320988,0,0,0.04320987654320988,59.49999999999999,0)" xlink:href="#ad"/><use transform="matrix(0.04320987654320988,0,0,0.04320987654320988,68.14197530864197,0)" xlink:href="#aa"/><use transform="matrix(0.04320987654320988,0,0,0.04320987654320988,76.78395061728395,0)" xlink:href="#ah"/><use transform="matrix(0.04320987654320988,0,0,0.04320987654320988,81.10493827160494,0)" xlink:href="#ai"/></g><path fill="#666" d="M100-194c62-1 85 37 85 99 1 63-27 99-86 99S16-35 15-95c0-66 28-99 85-99zM99-20c44 1 53-31 53-75 0-43-8-75-51-75s-53 32-53 75 10 74 51 75" id="aj"/><path fill="#666" d="M206 0h-36l-40-164L89 0H53L-1-190h32L70-26l43-164h34l41 164 42-164h31" id="ak"/><g id="i"><use transform="matrix(0.04320987654320988,0,0,0.04320987654320988,0,0)" xlink:href="#ac"/><use transform="matrix(0.04320987654320988,0,0,0.04320987654320988,10.370370370370372,0)" xlink:href="#aj"/><use transform="matrix(0.04320987654320988,0,0,0.04320987654320988,19.01234567901235,0)" xlink:href="#ak"/><use transform="matrix(0.04320987654320988,0,0,0.04320987654320988,30.203703703703713,0)" xlink:href="#ad"/><use transform="matrix(0.04320987654320988,0,0,0.04320987654320988,38.845679012345684,0)" xlink:href="#ae"/></g><g id="j"><use transform="matrix(0.04320987654320988,0,0,0.04320987654320988,0,0)" xlink:href="#Z"/><use transform="matrix(0.04320987654320988,0,0,0.04320987654320988,12.098765432098766,0)" xlink:href="#aa"/></g><path fill="#666" d="M127-220V0H93v-220H8v-28h204v28h-85" id="al"/><path fill="#666" d="M24-231v-30h32v30H24zM24 0v-190h32V0H24" id="am"/><path fill="#666" d="M84 4C-5 8 30-112 23-190h32v120c0 31 7 50 39 49 72-2 45-101 50-169h31l1 190h-30c-1-10 1-25-2-33-11 22-28 36-60 37" id="an"/><g id="k"><use transform="matrix(0.04320987654320988,0,0,0.04320987654320988,0,0)" xlink:href="#ab"/><use transform="matrix(0.04320987654320988,0,0,0.04320987654320988,5.1419753086419755,0)" xlink:href="#al"/><use transform="matrix(0.04320987654320988,0,0,0.04320987654320988,14.04320987654321,0)" xlink:href="#am"/><use transform="matrix(0.04320987654320988,0,0,0.04320987654320988,17.45679012345679,0)" xlink:href="#af"/><use transform="matrix(0.04320987654320988,0,0,0.04320987654320988,30.376543209876548,0)" xlink:href="#ad"/><use transform="matrix(0.04320987654320988,0,0,0.04320987654320988,39.01851851851852,0)" xlink:href="#aj"/><use transform="matrix(0.04320987654320988,0,0,0.04320987654320988,47.66049382716049,0)" xlink:href="#an"/><use transform="matrix(0.04320987654320988,0,0,0.04320987654320988,56.30246913580247,0)" xlink:href="#ah"/><use transform="matrix(0.04320987654320988,0,0,0.04320987654320988,60.623456790123456,0)" xlink:href="#ai"/></g><path fill="#666" d="M185-189c-5-48-123-54-124 2 14 75 158 14 163 119 3 78-121 87-175 55-17-10-28-26-33-46l33-7c5 56 141 63 141-1 0-78-155-14-162-118-5-82 145-84 179-34 5 7 8 16 11 25" id="ao"/><path fill="#666" d="M85-194c31 0 48 13 60 33l-1-100h32l1 261h-30c-2-10 0-23-3-31C134-8 116 4 85 4 32 4 16-35 15-94c0-66 23-100 70-100zm9 24c-40 0-46 34-46 75 0 40 6 74 45 74 42 0 51-32 51-76 0-42-9-74-50-73" id="ap"/><path fill="#666" d="M16-82v-28h88v28H16" id="aq"/><path fill="#666" d="M115-194c53 0 69 39 70 98 0 66-23 100-70 100C84 3 66-7 56-30L54 0H23l1-261h32v101c10-23 28-34 59-34zm-8 174c40 0 45-34 45-75 0-40-5-75-45-74-42 0-51 32-51 76 0 43 10 73 51 73" id="ar"/><path fill="#666" d="M179-190L93 31C79 59 56 82 12 73V49c39 6 53-20 64-50L1-190h34L92-34l54-156h33" id="as"/><g id="l"><use transform="matrix(0.04320987654320988,0,0,0.04320987654320988,0,0)" xlink:href="#ao"/><use transform="matrix(0.04320987654320988,0,0,0.04320987654320988,10.370370370370372,0)" xlink:href="#ah"/><use transform="matrix(0.04320987654320988,0,0,0.04320987654320988,14.691358024691363,0)" xlink:href="#ag"/><use transform="matrix(0.04320987654320988,0,0,0.04320987654320988,23.333333333333336,0)" xlink:href="#aa"/><use transform="matrix(0.04320987654320988,0,0,0.04320987654320988,31.97530864197531,0)" xlink:href="#ap"/><use transform="matrix(0.04320987654320988,0,0,0.04320987654320988,40.617283950617285,0)" xlink:href="#aq"/><use transform="matrix(0.04320987654320988,0,0,0.04320987654320988,45.75925925925927,0)" xlink:href="#ar"/><use transform="matrix(0.04320987654320988,0,0,0.04320987654320988,54.40123456790123,0)" xlink:href="#as"/></g><path fill="#666" d="M650-1214c-281 0-336 244-336 533 0 295 60 546 347 546 188 0 263-142 322-282l159 65C1058-155 935 20 659 20c-401 0-546-295-546-701 0-407 135-689 536-689 264 0 391 146 466 335l-168 65c-47-129-127-244-297-244" id="at"/><path fill="#666" d="M904-1102c199 0 220 177 220 381V0H956v-686c-3-114 0-215-60-264-70-33-125-4-158 71-26 56-39 140-39 252V0H531v-686c-3-114-1-215-61-264-78-41-136 24-157 84-24 69-39 159-39 259V0H105c-3-360 6-732-6-1082h149c6 50 3 123 8 175 36-100 83-195 216-195 135 0 166 79 196 196 42-105 93-196 236-196" id="au"/><path fill="#666" d="M865-914c-3-187-2-380-2-570h180v1261c0 76 1 155 6 223H877c-8-49-9-116-10-174h-5C801-44 708 26 530 26c-135 0-234-46-297-139s-95-232-95-419c0-377 131-566 392-566 176 0 271 63 335 184zm-286-51c-222 0-255 197-255 427 0 229 31 425 253 425 237 0 286-195 286-441 0-238-52-411-284-411" id="av"/><path fill="#666" d="M496 0v-299h235V0H496zm0-783v-299h235v299H496" id="aw"/><g id="m"><use transform="matrix(0.007595486111111112,0,0,0.007595486111111112,0,0)" xlink:href="#at"/><use transform="matrix(0.007595486111111112,0,0,0.007595486111111112,9.334852430555557,0)" xlink:href="#au"/><use transform="matrix(0.007595486111111112,0,0,0.007595486111111112,18.669704861111114,0)" xlink:href="#av"/><use transform="matrix(0.007595486111111112,0,0,0.007595486111111112,28.00455729166667,0)" xlink:href="#aw"/></g><path fill="#666" d="M1065-1013c47 164 49 500-1 665C999-130 875 20 611 20c-377 0-484-300-487-695-2-245 41-425 141-551 77-98 191-144 352-144 261 0 386 140 448 357zM741-155c199-92 203-504 159-785-26-168-96-284-283-284-281 0-308 256-311 549-2 181 18 324 80 428 46 77 115 118 227 120 47 0 90-10 128-28zM496-555v-249h235v249H496" id="ax"/><path fill="#666" d="M932 0L611-444 288 0H94l415-556-397-526h199l300 421 298-421h201L713-558 1133 0H932" id="ay"/><path fill="#666" d="M148-1120c216-7 379-89 463-229h166v1204h353V0H157v-145h439v-1021c-79 124-254 184-448 194v-148" id="az"/><path fill="#666" d="M611-1370c266 0 451 106 451 368 0 147-77 243-154 327-132 144-316 255-451 395-42 44-75 87-96 134h723V0H144v-117c124-264 387-411 582-603 73-72 151-147 151-271 0-161-104-231-266-231-163 0-249 90-268 238l-184-17c35-233 185-369 452-369" id="aA"/><g id="n"><use transform="matrix(0.007595486111111112,0,0,0.007595486111111112,0,0)" xlink:href="#ax"/><use transform="matrix(0.007595486111111112,0,0,0.007595486111111112,9.334852430555557,0)" xlink:href="#ay"/><use transform="matrix(0.007595486111111112,0,0,0.007595486111111112,18.669704861111114,0)" xlink:href="#az"/><use transform="matrix(0.007595486111111112,0,0,0.007595486111111112,28.00455729166667,0)" xlink:href="#aA"/><use transform="matrix(0.007595486111111112,0,0,0.007595486111111112,37.33940972222223,0)" xlink:href="#ax"/><use transform="matrix(0.007595486111111112,0,0,0.007595486111111112,46.674262152777786,0)" xlink:href="#az"/></g><path fill="#666" d="M202-1349h823v156H709v1037h316V0H202v-156h316v-1037H202v-156" id="aB"/><path fill="#666" d="M473-1349c438-1 655 221 652 661C1122-268 945-8 532 0H162v-1349h311zm42 1193c308-4 416-205 418-532 2-330-131-509-459-505H353v1037h162" id="aC"/><g id="o"><use transform="matrix(0.007595486111111112,0,0,0.007595486111111112,0,0)" xlink:href="#aB"/><use transform="matrix(0.007595486111111112,0,0,0.007595486111111112,9.334852430555557,0)" xlink:href="#aC"/><use transform="matrix(0.007595486111111112,0,0,0.007595486111111112,18.669704861111114,0)" xlink:href="#aw"/></g><path fill="#666" d="M839-1335c-182-6-269 67-259 253h491v142H580V0H400v-940H138v-142h262c-15-293 132-408 418-402 94 2 200 7 281 21v145c-75-10-177-14-260-17" id="aD"/><g id="p"><use transform="matrix(0.007595486111111112,0,0,0.007595486111111112,0,0)" xlink:href="#ax"/><use transform="matrix(0.007595486111111112,0,0,0.007595486111111112,9.334852430555557,0)" xlink:href="#ay"/><use transform="matrix(0.007595486111111112,0,0,0.007595486111111112,18.669704861111114,0)" xlink:href="#aD"/><use transform="matrix(0.007595486111111112,0,0,0.007595486111111112,28.00455729166667,0)" xlink:href="#aD"/><use transform="matrix(0.007595486111111112,0,0,0.007595486111111112,37.33940972222223,0)" xlink:href="#aD"/><use transform="matrix(0.007595486111111112,0,0,0.007595486111111112,46.674262152777786,0)" xlink:href="#aD"/><use transform="matrix(0.007595486111111112,0,0,0.007595486111111112,56.00911458333334,0)" xlink:href="#aD"/><use transform="matrix(0.007595486111111112,0,0,0.007595486111111112,65.3439670138889,0)" xlink:href="#aD"/><use transform="matrix(0.007595486111111112,0,0,0.007595486111111112,74.67881944444446,0)" xlink:href="#aD"/><use transform="matrix(0.007595486111111112,0,0,0.007595486111111112,84.01367187500001,0)" xlink:href="#aD"/></g><path fill="#666" d="M682 16c-209 0-323-80-324-285v-671H190v-142h170l58-282h120v282h432v142H538v652c2 114 60 155 182 155 106 0 209-16 297-34v137C921-4 806 16 682 16" id="aE"/><path fill="#666" d="M745-142h380V0H143v-142h422v-798H246v-142h499v940zM545-1292v-192h200v192H545" id="aF"/><path fill="#666" d="M617-1102c355 0 481 238 477 599H322c5 222 84 388 301 388 144 0 244-59 284-166l158 45C1002-72 854 20 623 20c-342 0-490-220-490-568 0-346 151-554 484-554zm291 461c-18-192-90-328-289-328-194 0-287 128-295 328h584" id="aG"/><path fill="#666" d="M615-1102c343 0 484 203 482 560-1 347-147 562-488 562-336 0-475-219-479-562-4-349 156-560 485-560zm-8 989c240 0 301-180 301-429 0-245-55-427-290-427-236 0-299 181-299 427 0 243 61 429 288 429" id="aH"/><path fill="#666" d="M528 20c-247 0-343-132-343-381v-721h180v686c-4 177 45 284 224 277 194-8 279-136 279-336v-627h181c3 360-6 732 6 1082H885c-4-54-7-126-8-185h-3C809-64 714 20 528 20" id="aI"/><g id="q"><use transform="matrix(0.007595486111111112,0,0,0.007595486111111112,0,0)" xlink:href="#aE"/><use transform="matrix(0.007595486111111112,0,0,0.007595486111111112,9.334852430555557,0)" xlink:href="#aF"/><use transform="matrix(0.007595486111111112,0,0,0.007595486111111112,18.669704861111114,0)" xlink:href="#au"/><use transform="matrix(0.007595486111111112,0,0,0.007595486111111112,28.00455729166667,0)" xlink:href="#aG"/><use transform="matrix(0.007595486111111112,0,0,0.007595486111111112,37.33940972222223,0)" xlink:href="#aH"/><use transform="matrix(0.007595486111111112,0,0,0.007595486111111112,46.674262152777786,0)" xlink:href="#aI"/><use transform="matrix(0.007595486111111112,0,0,0.007595486111111112,56.00911458333334,0)" xlink:href="#aE"/><use transform="matrix(0.007595486111111112,0,0,0.007595486111111112,65.3439670138889,0)" xlink:href="#aw"/></g><path fill="#666" d="M672-881c271 0 424 163 424 435 0 291-160 466-455 466-367 0-490-287-490-662 0-324 85-568 293-680 129-70 351-59 460 16 73 50 125 123 153 223l-172 31c-31-108-107-172-232-172-259 0-316 252-323 529 59-113 178-186 342-186zm-37 756c186 0 278-124 278-313s-96-304-284-304c-163 0-281 93-281 261 0 157 65 270 168 327 35 19 75 29 119 29" id="aJ"/><g id="r"><use transform="matrix(0.007595486111111112,0,0,0.007595486111111112,0,0)" xlink:href="#aJ"/><use transform="matrix(0.007595486111111112,0,0,0.007595486111111112,9.334852430555557,0)" xlink:href="#ax"/></g><path fill="#666" d="M873-819c-18-114-119-146-250-146-163 0-245 50-245 151 0 151 170 148 294 185 182 54 388 94 388 320 0 240-189 325-439 329-245 4-410-69-454-268l159-31c24 133 136 168 295 165 144-2 270-31 270-171 0-164-195-160-331-202-167-52-350-87-350-299 0-218 173-315 413-313 220 2 373 77 412 260" id="aK"/><path fill="#666" d="M631 20c-350 0-501-215-501-562 0-355 162-560 502-560 250 0 399 118 446 323l-192 14c-23-124-109-196-262-196-242 0-305 171-305 415 1 245 61 427 304 427 151 0 248-77 267-215l190 12C1039-107 883 20 631 20" id="aL"/><path fill="#666" d="M496 0v-299h235V0H496" id="aM"/><g id="s"><use transform="matrix(0.007595486111111112,0,0,0.007595486111111112,0,0)" xlink:href="#aK"/><use transform="matrix(0.007595486111111112,0,0,0.007595486111111112,9.334852430555557,0)" xlink:href="#aG"/><use transform="matrix(0.007595486111111112,0,0,0.007595486111111112,18.669704861111114,0)" xlink:href="#aL"/><use transform="matrix(0.007595486111111112,0,0,0.007595486111111112,28.00455729166667,0)" xlink:href="#aM"/></g><g id="u"><use transform="matrix(0.007595486111111112,0,0,0.007595486111111112,0,0)" xlink:href="#at"/><use transform="matrix(0.007595486111111112,0,0,0.007595486111111112,9.334852430555557,0)" xlink:href="#au"/><use transform="matrix(0.007595486111111112,0,0,0.007595486111111112,18.669704861111114,0)" xlink:href="#av"/><use transform="matrix(0.007595486111111112,0,0,0.007595486111111112,28.00455729166667,0)" xlink:href="#aw"/></g><g id="v"><use transform="matrix(0.007595486111111112,0,0,0.007595486111111112,0,0)" xlink:href="#ax"/><use transform="matrix(0.007595486111111112,0,0,0.007595486111111112,9.334852430555557,0)" xlink:href="#ay"/><use transform="matrix(0.007595486111111112,0,0,0.007595486111111112,18.669704861111114,0)" xlink:href="#az"/><use transform="matrix(0.007595486111111112,0,0,0.007595486111111112,28.00455729166667,0)" xlink:href="#aA"/><use transform="matrix(0.007595486111111112,0,0,0.007595486111111112,37.33940972222223,0)" xlink:href="#ax"/><use transform="matrix(0.007595486111111112,0,0,0.007595486111111112,46.674262152777786,0)" xlink:href="#aA"/></g><path fill="#666" d="M116-571v-205l995-418v154L253-674l858 367v153" id="aN"/><path fill="#666" d="M839-1102c70 0 148 7 206 17v167c-112-18-268-36-363 15-129 69-208 203-208 395V0H294c-10-367 32-789-52-1082h171c21 75 41 161 48 250h5c67-152 152-270 373-270" id="aO"/><path fill="#666" d="M1000-272c3 95 12 159 101 161 21 0 41-3 59-7V-6c-44 10-86 16-139 16-141 2-191-84-197-217h-6C748-76 648 20 446 20c-207 0-318-120-318-322 0-266 194-348 454-354l236-4c12-191-40-305-222-305-140 0-220 47-232 172l-188-17c33-204 181-292 423-292 255 0 401 118 401 364v466zm-683-27c0 109 63 184 175 182 166-3 259-96 306-217 24-65 20-120 20-200-232 7-501-28-501 235" id="aP"/><path fill="#666" d="M736-142h380V0H134v-142h422v-1200H267v-142h469v1342" id="aQ"/><path fill="#666" d="M116-154v-153l858-367-858-366v-154l995 418v205" id="aR"/><g id="w"><use transform="matrix(0.007595486111111112,0,0,0.007595486111111112,0,0)" xlink:href="#aN"/><use transform="matrix(0.007595486111111112,0,0,0.007595486111111112,9.334852430555557,0)" xlink:href="#aO"/><use transform="matrix(0.007595486111111112,0,0,0.007595486111111112,18.669704861111114,0)" xlink:href="#aG"/><use transform="matrix(0.007595486111111112,0,0,0.007595486111111112,28.00455729166667,0)" xlink:href="#aP"/><use transform="matrix(0.007595486111111112,0,0,0.007595486111111112,37.33940972222223,0)" xlink:href="#aQ"/><use transform="matrix(0.007595486111111112,0,0,0.007595486111111112,46.674262152777786,0)" xlink:href="#aR"/></g><path fill="#666" d="M706-1102c241 0 344 136 343 381V0H868v-695c1-168-57-273-220-268-190 6-283 138-283 336V0H185c-3-360 6-732-6-1082h170c4 54 7 126 8 185h3c63-121 164-204 346-205" id="aS"/><path fill="#666" d="M334-464v-160h560v160H334" id="aT"/><g id="x"><use transform="matrix(0.007595486111111112,0,0,0.007595486111111112,0,0)" xlink:href="#aF"/><use transform="matrix(0.007595486111111112,0,0,0.007595486111111112,9.334852430555557,0)" xlink:href="#aS"/><use transform="matrix(0.007595486111111112,0,0,0.007595486111111112,18.669704861111114,0)" xlink:href="#aT"/><use transform="matrix(0.007595486111111112,0,0,0.007595486111111112,28.00455729166667,0)" xlink:href="#aL"/><use transform="matrix(0.007595486111111112,0,0,0.007595486111111112,37.33940972222223,0)" xlink:href="#au"/><use transform="matrix(0.007595486111111112,0,0,0.007595486111111112,46.674262152777786,0)" xlink:href="#av"/></g><g id="y"><use transform="matrix(0.007595486111111112,0,0,0.007595486111111112,0,0)" xlink:href="#ax"/><use transform="matrix(0.007595486111111112,0,0,0.007595486111111112,9.334852430555557,0)" xlink:href="#ay"/><use transform="matrix(0.007595486111111112,0,0,0.007595486111111112,18.669704861111114,0)" xlink:href="#az"/><use transform="matrix(0.007595486111111112,0,0,0.007595486111111112,28.00455729166667,0)" xlink:href="#aA"/><use transform="matrix(0.007595486111111112,0,0,0.007595486111111112,37.33940972222223,0)" xlink:href="#ax"/><use transform="matrix(0.007595486111111112,0,0,0.007595486111111112,46.674262152777786,0)" xlink:href="#ax"/></g><g id="z"><use transform="matrix(0.007595486111111112,0,0,0.007595486111111112,0,0)" xlink:href="#aS"/><use transform="matrix(0.007595486111111112,0,0,0.007595486111111112,9.334852430555557,0)" xlink:href="#aH"/><use transform="matrix(0.007595486111111112,0,0,0.007595486111111112,18.669704861111114,0)" xlink:href="#aS"/><use transform="matrix(0.007595486111111112,0,0,0.007595486111111112,28.00455729166667,0)" xlink:href="#aG"/></g><g id="A"><use transform="matrix(0.04320987654320988,0,0,0.04320987654320988,0,0)" xlink:href="#al"/><use transform="matrix(0.04320987654320988,0,0,0.04320987654320988,8.901234567901236,0)" xlink:href="#am"/><use transform="matrix(0.04320987654320988,0,0,0.04320987654320988,12.314814814814817,0)" xlink:href="#af"/><use transform="matrix(0.04320987654320988,0,0,0.04320987654320988,25.23456790123457,0)" xlink:href="#ad"/><use transform="matrix(0.04320987654320988,0,0,0.04320987654320988,33.876543209876544,0)" xlink:href="#aj"/><use transform="matrix(0.04320987654320988,0,0,0.04320987654320988,42.51851851851852,0)" xlink:href="#an"/><use transform="matrix(0.04320987654320988,0,0,0.04320987654320988,51.16049382716049,0)" xlink:href="#ah"/></g><path fill="#666" d="M30 0v-248h187v28H63v79h144v27H63v87h162V0H30" id="aU"/><path fill="#666" d="M141 0L90-78 38 0H4l68-98-65-92h35l48 74 47-74h35l-64 92 68 98h-35" id="aV"/><path fill="#666" d="M115-194c55 1 70 41 70 98S169 2 115 4C84 4 66-9 55-30l1 105H24l-1-265h31l2 30c10-21 28-34 59-34zm-8 174c40 0 45-34 45-75s-6-73-45-74c-42 0-51 32-51 76 0 43 10 73 51 73" id="aW"/><g id="B"><use transform="matrix(0.04320987654320988,0,0,0.04320987654320988,0,0)" xlink:href="#aU"/><use transform="matrix(0.04320987654320988,0,0,0.04320987654320988,10.370370370370372,0)" xlink:href="#aV"/><use transform="matrix(0.04320987654320988,0,0,0.04320987654320988,18.148148148148152,0)" xlink:href="#aW"/><use transform="matrix(0.04320987654320988,0,0,0.04320987654320988,26.790123456790127,0)" xlink:href="#am"/><use transform="matrix(0.04320987654320988,0,0,0.04320987654320988,30.203703703703713,0)" xlink:href="#ae"/><use transform="matrix(0.04320987654320988,0,0,0.04320987654320988,35.345679012345684,0)" xlink:href="#ad"/><use transform="matrix(0.04320987654320988,0,0,0.04320987654320988,43.98765432098766,0)" xlink:href="#ap"/></g><g id="C"><use transform="matrix(0.007595486111111112,0,0,0.007595486111111112,0,0)" xlink:href="#aO"/><use transform="matrix(0.007595486111111112,0,0,0.007595486111111112,9.334852430555557,0)" xlink:href="#aG"/><use transform="matrix(0.007595486111111112,0,0,0.007595486111111112,18.669704861111114,0)" xlink:href="#aK"/><use transform="matrix(0.007595486111111112,0,0,0.007595486111111112,28.00455729166667,0)" xlink:href="#aG"/><use transform="matrix(0.007595486111111112,0,0,0.007595486111111112,37.33940972222223,0)" xlink:href="#aE"/></g><g id="D"><use transform="matrix(0.007595486111111112,0,0,0.007595486111111112,0,0)" xlink:href="#aE"/><use transform="matrix(0.007595486111111112,0,0,0.007595486111111112,9.334852430555557,0)" xlink:href="#aF"/><use transform="matrix(0.007595486111111112,0,0,0.007595486111111112,18.669704861111114,0)" xlink:href="#au"/><use transform="matrix(0.007595486111111112,0,0,0.007595486111111112,28.00455729166667,0)" xlink:href="#aG"/><use transform="matrix(0.007595486111111112,0,0,0.007595486111111112,37.33940972222223,0)" xlink:href="#aH"/><use transform="matrix(0.007595486111111112,0,0,0.007595486111111112,46.674262152777786,0)" xlink:href="#aI"/><use transform="matrix(0.007595486111111112,0,0,0.007595486111111112,56.00911458333334,0)" xlink:href="#aE"/><use transform="matrix(0.007595486111111112,0,0,0.007595486111111112,65.3439670138889,0)" xlink:href="#aw"/></g><g id="E"><use transform="matrix(0.007595486111111112,0,0,0.007595486111111112,0,0)" xlink:href="#at"/><use transform="matrix(0.007595486111111112,0,0,0.007595486111111112,9.334852430555557,0)" xlink:href="#au"/><use transform="matrix(0.007595486111111112,0,0,0.007595486111111112,18.669704861111114,0)" xlink:href="#av"/></g></defs></g></svg>